<svg width="18" height="18" viewBox="0 0 18 18" fill="none" xmlns="http://www.w3.org/2000/svg">
<path d="M12.9968 2.55348C12.5775 2.41278 12.1365 2.35048 11.6948 2.35048C10.7218 2.34348 9.77753 2.66548 8.99983 3.25978C8.93683 3.21148 8.85983 3.16878 8.78983 3.12748C8.71983 3.08478 8.59383 2.98048 8.48883 2.92448L8.22283 2.80548C8.08283 2.72848 7.93653 2.67248 7.78183 2.62278C7.76783 2.60948 7.74683 2.59478 7.71883 2.58148H7.67753C7.26383 2.44078 6.83683 2.36378 6.39583 2.35048H6.31883C6.12283 2.35048 5.92753 2.36378 5.73083 2.39248H5.64683C5.43683 2.41978 5.22753 2.46878 5.02453 2.53878C2.41283 3.39348 1.48183 6.22848 2.27283 8.70648C2.72083 9.97278 3.44253 11.1215 4.38053 12.0658C5.74483 13.3818 7.23653 14.5438 8.83883 15.5378L9.02083 15.6505L9.19583 15.5448C10.7925 14.5438 12.2758 13.3818 13.6275 12.0728C14.5718 11.1285 15.2928 9.97278 15.7338 8.70648C16.5115 6.22848 15.5805 3.39348 12.9968 2.55348V2.55348Z" fill="#EF6C00"/>
<path d="M14.1098 6.85778C14.0888 7.15248 13.8438 7.38278 13.5568 7.39048C13.4028 7.37578 13.2558 7.30648 13.1578 7.18748C13.0598 7.06848 13.0115 6.91378 13.0248 6.75348V6.73178C13.0248 6.24248 12.7245 5.80078 12.2758 5.63278C11.9818 5.52848 11.8278 5.20648 11.9258 4.91248C12.0308 4.61848 12.3458 4.46378 12.6328 4.56248C13.5365 4.90548 14.1308 5.79378 14.1098 6.77448V6.85778Z" fill="#C6E3E5"/>
</svg>
